<svg id="Layer_1" data-name="Layer 1" xmlns="http://www.w3.org/2000/svg" viewBox="0 0 122.88 112.02"><defs><style>.cls-1{fill-rule:evenodd;}</style></defs><title>global-money</title><path class="cls-1" d="M81.79,101.58a4.28,4.28,0,0,1,.64,2.2c0,4.06-6.28,7.35-14,7.35s-14-3.29-14-7.35a4.34,4.34,0,0,1,.64-2.2c1.79,3,7.1,5.16,13.38,5.16s11.61-2.17,13.39-5.16Zm6.09-46.21L86.57,48l-3-2.15-7.14-1.28c.24.39.49.77.74,1.15A18,18,0,0,1,80,51.45c.64,3-.5,5.57-5.55,7.39.14.09.29.18.43.29,2,1.51,2.44,3.73-1.85,9.34l-.94,1.23a33.89,33.89,0,0,0-3.67-.19c-.41,0-.83,0-1.25,0,.82-1.12,1.69-2.3,2.63-3.52,2.25-3,2.68-3.6,2.61-3.65a4.4,4.4,0,0,0-.83-.39c-1.39-.57-2.91-1.2-3.63-3.25a2.81,2.81,0,0,1-.1-.31A2,2,0,0,1,69.41,56c5.52-1.16,6.88-2.38,6.6-3.74A15.73,15.73,0,0,0,73.72,48a31,31,0,0,1-2.91-5.21A2,2,0,0,1,73,39.87L84.66,42h0a2,2,0,0,1,.82.34l4,2.81a2,2,0,0,1,1,1.41l1.24,6.93c-.83.34-1.62.71-2.36,1.1-.49.26-1,.53-1.43.81ZM47.36,78.75v-.3a5.58,5.58,0,0,0-.27-1.66,10.6,10.6,0,0,0-.92-2.05c-.52-.9-.9-1.63-1.17-2.18a4.92,4.92,0,0,1-.56-1.9c0-3.33-1.14-4.06-2.72-4.06a24.57,24.57,0,0,0-3.13.3,31.51,31.51,0,0,1-4.24.38,4.65,4.65,0,0,1-3.15-1.45,15.06,15.06,0,0,1-2.37-3.1q-1.11-1.83-1.68-2.94a5.9,5.9,0,0,1-.78-2.33V55.89c-.06-5.64-.11-11,5.34-14.92C34,37.76,36,35.68,38.45,34.36s5.38-1.87,9.21-1.87a2,2,0,0,1,2,2v2.88l2.44,1.07,0-.16a2,2,0,0,1,2.41-1.57h0a16.41,16.41,0,0,1,2.06.58,9.41,9.41,0,0,1,1.74.84,3.55,3.55,0,0,0,1.28.41,5.24,5.24,0,0,0,1.85,0,1.3,1.3,0,0,0,.59-.21h0v-.07c.05-.3.09-.61.13-.92l-2.41.22a2,2,0,0,1-2-1.16h0c-.79-1.68-2.48-2.54-4.59-3.62a30.42,30.42,0,0,1-7.83-5.27C35.67,31,32.57,31.5,31.79,29.34c-.46-1.28.2-2.29,1.08-3.66s1.94-3,1.94-4.65a2,2,0,0,1,1.35-1.92l8.19-3.74h0c-.88-.15-2-.35-2.88-4.75a2,2,0,0,1,1-2.2h0A25.74,25.74,0,0,0,44.76,7c.87-.59,1.91-1.35,3.13-2.28L48,4.7A49.87,49.87,0,0,0,36,8.13h0A54.39,54.39,0,0,0,27,13a50.07,50.07,0,0,0-7.69,6.33h0A50.07,50.07,0,0,0,13,27a54.39,54.39,0,0,0-4.85,9l0,.09a49.06,49.06,0,0,0-3,9.74,54.66,54.66,0,0,0,0,21c0,.18.07.37.11.55l9.41,4.5a2,2,0,0,1,1.15,1.76h0a16.59,16.59,0,0,1-1.36,6.72,16.09,16.09,0,0,0-1.19,4.89,2.06,2.06,0,0,1-.11.56,51.07,51.07,0,0,0,6.2,7.49h0A50.07,50.07,0,0,0,27,99.62a54.8,54.8,0,0,0,9,4.85l.09,0a49.69,49.69,0,0,0,9.65,3A13.72,13.72,0,0,0,48,112c-1-.14-2-.32-3-.52a54.33,54.33,0,0,1-10.53-3.25l-.11,0a58.35,58.35,0,0,1-9.6-5.21,54.33,54.33,0,0,1-8.3-6.83h0a54.33,54.33,0,0,1-6.83-8.3,59.11,59.11,0,0,1-5.21-9.6h0A53.85,53.85,0,0,1,1.1,67.61,58.69,58.69,0,0,1,1.1,45,53.68,53.68,0,0,1,4.36,34.46a.49.49,0,0,1,0-.11,59.11,59.11,0,0,1,5.21-9.6,54.92,54.92,0,0,1,6.83-8.3h0a54.33,54.33,0,0,1,8.3-6.83,58.35,58.35,0,0,1,9.6-5.21h0A55.29,55.29,0,0,1,56.3,0,57.51,57.51,0,0,1,67.6,1.1,53.57,53.57,0,0,1,78.14,4.36l.11,0a59.11,59.11,0,0,1,9.6,5.21,54.92,54.92,0,0,1,8.3,6.83h0a54.92,54.92,0,0,1,6.83,8.3,59.11,59.11,0,0,1,5.21,9.6h0A53.94,53.94,0,0,1,111.5,45a56.18,56.18,0,0,1,.9,6.41,39.61,39.61,0,0,0-6.71-.57h-.58a17.62,17.62,0,0,1,.5-2.05,6.29,6.29,0,0,1,1.06-2.07A50,50,0,0,0,105.43,41a46.93,46.93,0,0,0-2.41-6.6,51.26,51.26,0,0,0-7.33-11.78,48.3,48.3,0,0,0-4.75-4.95,50.49,50.49,0,0,0-5.45-4.29,51,51,0,0,0-6-3.54h0a51.79,51.79,0,0,0-5.9-2.52C66,9.08,63.85,8,61.43,6.88A10.83,10.83,0,0,0,56,5.66H54.24a3.23,3.23,0,0,0-1.09.45A20.93,20.93,0,0,0,50.34,8c-1.2.92-2.31,1.72-3.32,2.4q-.89.6-1.62,1c1,.22,1.71.83,2.22,5.36h0a2,2,0,0,1-1.17,2.07l-7.7,3.51a14.82,14.82,0,0,1-2.48,5.5.16.16,0,0,1-.07.07,35.88,35.88,0,0,1,8.91-4.57,2,2,0,0,1,2.28.46,26,26,0,0,0,7.67,5.39c2.36,1.2,4.31,2.19,5.7,4.24l3.29-.3a2.19,2.19,0,0,1,.36,0,2,2,0,0,1,2,2c0,.63,0,1.28-.09,1.94A18.52,18.52,0,0,1,66.11,39a.22.22,0,0,1,0,.08,3.81,3.81,0,0,1-.58,1.49,4.76,4.76,0,0,1-3.22,2,9.15,9.15,0,0,1-3.34,0,7.61,7.61,0,0,1-2.77-1,4,4,0,0,0-.51-.27l-.1.44h0a2.91,2.91,0,0,1-.12.39,2,2,0,0,1-2.68,1.05L47,40.66a2,2,0,0,1-1.36-1.92V36.63a12.23,12.23,0,0,0-5.26,1.31c-1.88,1-3.53,2.77-5.48,5.57a2,2,0,0,1-.58.6c-4,2.73-3.93,7.11-3.89,11.76,0,.93,0,1.31,0,1.59,0,.1.11.07.32.49.34.66.86,1.56,1.54,2.69A10.81,10.81,0,0,0,34,62.87l.37.34a28.57,28.57,0,0,0,3.7-.33,27.53,27.53,0,0,1,3.67-.34c3.95,0,6.8,1.46,6.8,8.12,0,.12.05-.07.16.17.23.47.57,1.11,1,1.91A14.9,14.9,0,0,1,50.76,75a16.18,16.18,0,0,0-3.4,3.74Zm-38.49-2c.44,1,.93,2,1.45,3,.09-.26.18-.52.28-.77a16.68,16.68,0,0,0,1.07-4l-4.27-2c.43,1.26.92,2.53,1.47,3.79ZM93,53l4.11-7.37a2,2,0,0,1,3.78.24L102.48,51A36.94,36.94,0,0,0,93,53ZM35.59,28c.08.22.25.2.58,0Zm86.5,71a5.16,5.16,0,0,1,.79,2.69c0,5-7.7,9-17.19,9s-17.18-4-17.18-9A5.3,5.3,0,0,1,89.29,99c2.19,3.66,8.71,6.31,16.4,6.31s14.23-2.65,16.4-6.31Zm0-10.9a5.22,5.22,0,0,1,.79,2.7c0,5-7.7,9-17.19,9s-17.18-4-17.18-9a5.36,5.36,0,0,1,.78-2.7c2.19,3.66,8.71,6.32,16.4,6.32s14.23-2.66,16.4-6.32ZM111.9,65.38l-.2,2.23-8.43-.73a7.8,7.8,0,0,1,1.44,3l-2-.18a6.64,6.64,0,0,0-.92-2A4.1,4.1,0,0,0,100,66.17l.16-1.81,11.73,1Zm-6.21-3.5c7.8,0,14.13,2.48,14.13,5.54S113.49,73,105.69,73s-14.12-2.49-14.12-5.54,6.33-5.54,14.12-5.54Zm0-1.84c9.49,0,17.19,4,17.19,9s-7.7,9-17.19,9-17.18-4-17.18-9,7.7-9,17.18-9ZM122.15,77.5a5.18,5.18,0,0,1,.73,2.59c0,5-7.7,9-17.19,9s-17.18-4-17.18-9a5.05,5.05,0,0,1,.73-2.59c2.11,3.71,8.68,6.43,16.45,6.43S120,81.21,122.15,77.5ZM73.47,83.06l-.16,1.82-6.89-.6a6.33,6.33,0,0,1,1.18,2.48L66,86.61A5.59,5.59,0,0,0,65.2,85a3.35,3.35,0,0,0-1.43-1.28l.13-1.48,9.57.83ZM68.4,80.2c6.37,0,11.53,2,11.53,4.52s-5.16,4.52-11.53,4.52-11.52-2-11.52-4.52S62,80.2,68.4,80.2Zm0-1.5c7.75,0,14,3.3,14,7.35s-6.28,7.36-14,7.36-14-3.3-14-7.36,6.28-7.35,14-7.35ZM81.84,93a4.26,4.26,0,0,1,.59,2.11c0,4.06-6.28,7.36-14,7.36s-14-3.3-14-7.36A4.13,4.13,0,0,1,55,93c1.73,3,7.09,5.25,13.43,5.25S80.11,96,81.84,93Z"/></svg>